<?xml version="1.0" encoding="iso-8859-1"?>
<!-- Generator: Adobe Illustrator 16.0.0, SVG Export Plug-In . SVG Version: 6.00 Build 0)  -->
<!DOCTYPE svg PUBLIC "-//W3C//DTD SVG 1.1//EN" "http://www.w3.org/Graphics/SVG/1.1/DTD/svg11.dtd">
<svg version="1.1" id="Capa_1" xmlns="http://www.w3.org/2000/svg" xmlns:xlink="http://www.w3.org/1999/xlink" x="0px" y="0px"
	 width="93.589px" height="93.589px" viewBox="0 0 93.589 93.589" style="enable-background:new 0 0 93.589 93.589;"
	 xml:space="preserve">
<g>
	<g>
		<path d="M82.224,34.717c-0.535-0.135-1.245-0.549-1.734-0.807c-0.385-0.203-0.939-0.371-1.716-0.353
			c-0.553,0.013-1.429,0.015-1.96-0.139c-0.744-0.216-1.673-0.543-1.836-0.871c-0.281-0.561,2.943-3.972-2.758-8.177
			c-5.529-4.079-3.043-6.239-10.978-12.989c-0.421-0.358-0.804-1.11-0.525-1.587c0.225-0.386,0.636-0.884,1.379-1.483
			c0.993-0.801,1.756-1.47,2.262-1.931c0.408-0.372,1.195-0.6,1.717-0.783c0.401-0.14,0.805-0.445,0.943-1.087
			c0.218-1.003,0.497-1.64,0.261-2.231c-0.206-0.513-0.989-1.036-1.366-1.439c-0.42-0.448-0.578-0.661-1.323-0.442
			c-1.061,0.312-5.047,1.121-5.856,0.623c-0.811-0.498-1.745-0.062-2.617,0.312c-0.503,0.216-0.985,0.079-1.436,0.044
			c-0.551-0.042-1.268,0.33-1.54-0.151c-0.18-0.318-0.511-0.693-1.261-0.915c-1.808-0.536-1.83-0.217-1.947-0.217
			s1.121,0.467,0.537,1.729c-0.531,1.147-3.226,0.826-2.902,3.762c0.061,0.549,0.328,0.55,0.576,0.057
			c0.124-0.246,0.272-0.498,0.438-0.693c0.356-0.421,1.277,0.016,1.303,0.568c0.009,0.205,0,0.423,0.041,0.648
			c0.101,0.543,0.474,1.291,0.45,1.843c-0.063,1.489-0.154,4.329-0.021,6.314c0.165,2.473-1.271,5.964-3.632,6.368
			c-0.544,0.093-0.57,0.141-0.025,0.23c0.97,0.16,2.506,0.184,3.844-0.804c2.148-1.589,4.346,2.477-2.057,6.262
			c-4.802,2.84-4.292,6.679-3.737,8.419c0.167,0.526,0.37,0.477,0.431-0.072c0.2-1.825,1.099-5.432,5.083-4.515
			c5.065,1.166,2.26,10.764-5.282,9.64c-0.546-0.081-0.668,0.123-0.229,0.457c0.599,0.454,1.481,0.977,2.38,0.977
			c1.589,0-4.579,2.758-7.196,8.084c-2.616,5.327-2.103,3.925-4.393,4.158c-2.289,0.233-7.71,2.009-12.195,10.467
			c-4.234,7.983-8.968,14.093-14.476,13.81c-0.552-0.027-0.639,0.162-0.15,0.42c0.582,0.31,1.442,0.66,2.506,0.779
			c0.549,0.061,0.559,0.127,0.03,0.288c-0.557,0.171-1.22,0.419-1.602,0.729c-0.334,0.271-0.815,0.365-1.247,0.388
			c-0.552,0.026-0.606,0.169-0.08,0.336c1.357,0.431,4.095,0.735,7.354-1.937c4.531-3.715,8.623-1.808,13.128-11.104
			c0.24-0.497,0.386-0.46,0.299,0.085c-0.193,1.201-0.655,3.243-1.698,4.703c-0.32,0.448-0.333,0.442,0.035,0.03
			c1.079-1.209,3.067-3.77,3.236-6.379c0.175-2.694,1.845-2.164,2.239-1.258c0.221,0.506-0.44,1.264-0.734,1.731
			c-0.511,0.813-0.929,1.831-1.077,2.647c-0.099,0.543,0.164,0.574,0.458,0.107c0.626-0.99,1.93-2.518,4.208-2.947
			c3.045-0.576,2.104-3.037,1.421-5.436c-0.151-0.531-0.359-1.402-0.442-1.949c-0.299-1.965,0.114-2.806,0.844-2.521
			c0.841,0.326,1.589,3.457,1.775,4.346c0.16,0.76,1.963,3.197,3.593,4.587c0.421,0.358,1.203,0.832,1.518,1.286
			c0.993,1.434,0.658,4.119-1.419,7.725c-2.15,3.731-0.919,2.709,0.085,4.24c0.303,0.462,0.575,1.324,0.743,1.85
			c0.885,2.781,1.762,6.336,1.929,7.088c0.188,0.84,1.402-0.141,1.075,1.168c-0.327,1.308-0.28,2.195,0,2.43
			c0.175,0.146,1.439,0.109,2.367,0.062c0.552-0.029,1.184-0.479,1.249-1.027c0.105-0.905-0.072-2.277-1.7-3.334
			c-2.115-1.373-2.167-5.164-2.192-7.039c-0.008-0.553,0.157-0.674,0.402-0.178c1.095,2.222,3.863,8.184,4.921,10.467
			c0.232,0.502,0.502,1.459,1.039,1.588c0.29,0.07,0.717,0.07,1.344-0.072c0.978-0.223,1.269,0.094,1.306,0.486
			c0.051,0.551,0.177,1.162,0.717,1.277c0.78,0.168,1.994,0.24,3.445-0.314c2.102-0.803-0.826-2.604-2.577-3.414
			c-0.501-0.232-1.35-0.546-1.753-0.921c-1.294-1.198-3.191-4.163-4.127-7.908c-1.169-4.673,1.262-3.505,3.598-11.916
			c2.189-7.883,3.189-4.437,2.613-8.821c-0.071-0.548-0.202-1.434-0.269-1.982c-0.523-4.413,0.395-4.334,3.054-6.454
			c0.433-0.345,1.106-0.931,1.528-1.288c3.186-2.701,6.164-4.951,6.857-6.64c0.747-1.822,2.477-3.692,3.645-3.925
			c0.646-0.129,1.565-0.359,2.259-0.538c0.533-0.139,1.409-0.192,1.962-0.186c0.663,0.007,1.579-0.057,2.509-0.35
			c1.776-0.561-1.916,4.019-1.542,5s-2.196,0.093-2.104,2.57c0.05,1.295,0.366,2.258,0.657,2.881c0.234,0.5,0.754,0.48,1.05,0.014
			c0.554-0.874,1.409-2.252,1.972-3.266c0.267-0.483,0.631-1.319,1.041-1.688c0.425-0.383,0.812-0.655,0.748-2.427
			c-0.073-2.066-0.293-3.054,0.584-3.517c0.487-0.258,1.185,0.129,1.27,0.675c0.135,0.86,0.105,2.381-0.721,4.845
			c-0.176,0.524-0.594,1.257-0.607,1.716c-0.007,0.237,0.058,0.505,0.271,0.767c0.573,0.708-4.873,1.749-1.071,5.5
			c0.394,0.387,1.031,0.324,1.354-0.123c0.448-0.621,1.006-1.486,1.165-2.154c0.28-1.168-0.279-1.971,0.748-2.807
			c1.028-0.837-0.188-4.482,1.401-7.799C86.558,36.379,83.856,35.129,82.224,34.717z"/>
	</g>
</g>
<g>
</g>
<g>
</g>
<g>
</g>
<g>
</g>
<g>
</g>
<g>
</g>
<g>
</g>
<g>
</g>
<g>
</g>
<g>
</g>
<g>
</g>
<g>
</g>
<g>
</g>
<g>
</g>
<g>
</g>
</svg>
