<svg xmlns="http://www.w3.org/2000/svg" viewBox="0 0 618 230" width="618" height="230">
	<style>
		tspan { white-space:pre }
		.shp0 { fill: #161f32 } 
		.shp1 { fill: #ffffff } 
		.shp2 { fill: #f3af22 } 
	</style>
	<g id="Calque 1">
		<g id="&lt;Group&gt;">
			<path id="&lt;Path&gt;" class="shp0" d="M9.4 209.92C9.4 219.37 17.07 227.04 26.52 227.04L179.77 227.04L418.32 227.04L590.91 227.04C600.37 227.04 608.04 219.37 608.04 209.92L608.04 176.89L608.04 64.66L608.04 24.12C608.04 14.67 600.37 7 590.91 7L415.52 7L174.18 7L26.52 7C17.07 7 9.4 14.67 9.4 24.12L9.4 64.66L9.4 185.45L9.4 209.92Z" />
			<path id="&lt;Compound Path&gt;" fill-rule="evenodd" class="shp1" d="M590.91 230.54L26.52 230.54C15.15 230.54 5.9 221.29 5.9 209.92L5.9 24.12C5.9 12.75 15.15 3.5 26.52 3.5L590.91 3.5C602.29 3.5 611.54 12.75 611.54 24.12L611.54 209.92C611.54 221.29 602.29 230.54 590.91 230.54ZM26.52 10.5C19.01 10.5 12.9 16.61 12.9 24.12L12.9 209.92C12.9 217.43 19.01 223.54 26.52 223.54L590.91 223.54C598.43 223.54 604.54 217.43 604.54 209.92L604.54 24.12C604.54 16.61 598.43 10.5 590.91 10.5L26.52 10.5Z" />
		</g>
		<g id="&lt;Group&gt;">
			<g id="&lt;Group&gt;">
				<path id="&lt;Compound Path&gt;" fill-rule="evenodd" class="shp1" d="M128.87 192.53L106.5 192.53L101.97 163.9L73.73 163.9L69.2 192.53L46.93 192.53L46.93 192.14L76.14 41.48L99.85 41.48L128.87 192.53ZM98.79 144.52L87.8 76.47L76.72 144.52L98.79 144.52Z" />
				<path id="&lt;Compound Path&gt;" class="shp1" d="M216.97 178.74C216.97 187.93 212.34 192.53 203.09 192.53L155.18 192.53C146.06 192.53 141.49 187.93 141.49 178.74L141.49 41.67L164.05 41.67L164.05 173.15L194.41 173.15L194.41 41.67L216.97 41.67L216.97 178.74Z" />
				<path id="&lt;Compound Path&gt;" class="shp1" d="M300.64 61.62L275.77 61.62L275.77 192.53L253.31 192.53L253.31 61.62L228.44 61.62L228.44 41.67L300.64 41.67L300.64 61.62Z" />
				<path id="&lt;Compound Path&gt;" fill-rule="evenodd" class="shp1" d="M388.17 178.74C388.17 187.93 383.6 192.53 374.48 192.53L325.51 192.53C316.58 192.53 312.11 187.93 312.11 178.74L312.11 55.55C312.11 46.3 316.58 41.67 325.51 41.67L374.48 41.67C383.6 41.67 388.17 46.3 388.17 55.55L388.17 178.74ZM365.61 173.15L365.61 61.04L334.67 61.04L334.67 173.15L365.61 173.15Z" />
			</g>
			<g id="&lt;Group&gt;">
				<g id="&lt;Group&gt;">
					<path id="&lt;Path&gt;" class="shp2" d="M573.58 192.37L422.84 192.37L422.84 41.63L573.58 41.63L573.58 192.37Z" />
				</g>
				<g id="&lt;Group&gt;">
					<g id="&lt;Group&gt;">
						<path id="&lt;Compound Path&gt;" class="shp0" d="M550.06 125.6L507.33 125.6L507.33 167.59L489.09 167.59L489.09 125.6L446.36 125.6L446.36 108.4L489.09 108.4L489.09 66.42L507.33 66.42L507.33 108.4L550.06 108.4L550.06 125.6Z" />
						<path id="&lt;Compound Path&gt;" fill-rule="evenodd" class="shp0" d="M512.39 172.64L484.03 172.64L484.03 130.66L441.31 130.66L441.31 103.34L484.03 103.34L484.03 61.36L512.39 61.36L512.39 103.34L555.11 103.34L555.11 130.66L512.39 130.66L512.39 172.64ZM494.14 162.53L502.28 162.53L502.28 120.55L545 120.55L545 113.45L502.28 113.45L502.28 71.47L494.14 71.47L494.14 113.45L451.42 113.45L451.42 120.55L494.14 120.55L494.14 162.53Z" />
					</g>
				</g>
			</g>
		</g>
	</g>
</svg>