<svg version="1.2" baseProfile="tiny-ps" xmlns="http://www.w3.org/2000/svg" viewBox="0 0 33 33" width="33" height="33">
	<title>print-svg</title>
	<style>
		tspan { white-space:pre }
		.shp0 { fill: #333333 } 
	</style>
	<path id="Layer" fill-rule="evenodd" class="shp0" d="M26.38 24.5L26.38 31.06C26.38 31.58 25.95 32 25.44 32L6.56 32C6.04 32 5.63 31.58 5.63 31.06L5.63 24.5L2.81 24.5C1.26 24.5 0 23.24 0 21.69L0 12.19C0 10.96 0.78 9.92 1.88 9.54L1.88 8.44C1.88 6.89 3.14 5.63 4.69 5.63L5.62 5.63L5.62 0.94C5.62 0.42 6.04 0 6.56 0L20.91 0C21.66 0 22.37 0.29 22.9 0.82L25.55 3.48C26.17 4.1 26.38 4.8 26.38 5.63L27.31 5.63C28.86 5.63 30.13 6.89 30.13 8.44L30.13 9.54C31.22 9.92 32 10.96 32 12.19L32 21.69C32 23.24 30.74 24.5 29.19 24.5L26.38 24.5ZM7.5 30.13L24.5 30.13L24.5 20.75L7.5 20.75L7.5 30.13ZM5.63 7.5L4.69 7.5C4.17 7.5 3.75 7.92 3.75 8.44L3.75 9.38L5.63 9.38L5.63 7.5ZM24.23 4.8L21.57 2.15C21.27 1.84 20.93 1.88 20.75 1.88L20.75 5.63L24.5 5.63C24.5 5.43 24.52 5.1 24.23 4.8ZM24.5 7.5L19.81 7.5C19.3 7.5 18.88 7.08 18.88 6.56L18.88 1.88L7.5 1.88L7.5 9.38L24.5 9.38L24.5 7.5ZM28.25 8.44C28.25 7.92 27.83 7.5 27.31 7.5L26.38 7.5L26.38 9.38L28.25 9.38L28.25 8.44ZM29.19 11.25L2.81 11.25C2.3 11.25 1.87 11.67 1.87 12.19L1.87 21.69C1.87 22.21 2.3 22.63 2.81 22.63L5.63 22.63L5.63 20.75L4.69 20.75C4.17 20.75 3.75 20.33 3.75 19.81C3.75 19.29 4.17 18.88 4.69 18.88L27.31 18.88C27.83 18.88 28.25 19.29 28.25 19.81C28.25 20.33 27.83 20.75 27.31 20.75L26.38 20.75L26.38 22.63L29.19 22.63C29.71 22.63 30.13 22.2 30.13 21.69L30.13 12.19C30.13 11.67 29.7 11.25 29.19 11.25ZM8.44 15L4.69 15C4.17 15 3.75 14.58 3.75 14.06C3.75 13.54 4.17 13.13 4.69 13.13L8.44 13.13C8.96 13.13 9.38 13.54 9.38 14.06C9.38 14.58 8.96 15 8.44 15ZM21.69 28.25L10.31 28.25C9.79 28.25 9.38 27.83 9.38 27.31C9.38 26.79 9.79 26.38 10.31 26.38L21.69 26.38C22.2 26.38 22.62 26.8 22.62 27.31C22.62 27.83 22.2 28.25 21.69 28.25ZM21.69 24.5L10.31 24.5C9.79 24.5 9.38 24.08 9.38 23.56C9.38 23.04 9.79 22.63 10.31 22.63L21.69 22.63C22.2 22.63 22.62 23.05 22.62 23.56C22.62 24.08 22.2 24.5 21.69 24.5Z" />
</svg>