<svg version="1.2" baseProfile="tiny-ps" xmlns="http://www.w3.org/2000/svg" viewBox="0 0 31 28" width="31" height="28">
	<title>share-svg</title>
	<style>
		tspan { white-space:pre }
		.shp0 { fill: #333333 } 
	</style>
	<path id="Layer" fill-rule="evenodd" class="shp0" d="M24.75 16.5C27.64 16.5 30 18.86 30 21.75C30 24.64 27.64 27 24.75 27C21.86 27 19.5 24.64 19.5 21.75C19.5 21.35 19.55 20.96 19.64 20.59L9.81 16.81C8.91 18.41 7.21 19.5 5.25 19.5C2.35 19.5 0 17.14 0 14.25C0 11.36 2.35 9 5.25 9C7.09 9 8.71 9.96 9.64 11.4L19.74 6.74C19.6 6.26 19.5 5.77 19.5 5.25C19.5 2.35 21.86 0 24.75 0C27.64 0 30 2.35 30 5.25C30 8.14 27.64 10.5 24.75 10.5C22.91 10.5 21.29 9.54 20.35 8.1L10.26 12.76C10.4 13.24 10.5 13.73 10.5 14.25C10.5 14.65 10.45 15.04 10.36 15.41L20.19 19.19C21.09 17.59 22.79 16.5 24.75 16.5ZM21 5.25C21 7.32 22.68 9 24.75 9C26.82 9 28.5 7.32 28.5 5.25C28.5 3.18 26.82 1.5 24.75 1.5C22.68 1.5 21 3.18 21 5.25ZM9 14.25C9 12.18 7.32 10.5 5.25 10.5C3.18 10.5 1.5 12.18 1.5 14.25C1.5 16.32 3.18 18 5.25 18C7.32 18 9 16.32 9 14.25ZM28.5 21.75C28.5 19.68 26.82 18 24.75 18C22.68 18 21 19.68 21 21.75C21 23.82 22.68 25.5 24.75 25.5C26.82 25.5 28.5 23.82 28.5 21.75Z" />
</svg>