<svg xmlns="http://www.w3.org/2000/svg" width="28" height="28" viewBox="0 0 14 14"><g><g><path d="M4.806 0c2.65 0 4.807 2.123 4.807 4.732 0 .58-.105 1.143-.311 1.679l4.595 4.524a.343.343 0 0 1 .103.244v2.476c0 .19-.157.345-.35.345h-2.073a.352.352 0 0 1-.247-.1l-.699-.687a.342.342 0 0 1-.102-.244v-.845h-.857a.348.348 0 0 1-.35-.345v-.337h-.344a.348.348 0 0 1-.35-.345v-.742h-.754a.353.353 0 0 1-.247-.101L6.512 9.157a4.839 4.839 0 0 1-1.706.307C2.156 9.464 0 7.34 0 4.732 0 2.122 2.156 0 4.806 0zm0 8.774c.574 0 1.128-.114 1.649-.339a.354.354 0 0 1 .388.072L8.02 9.665h.96c.193 0 .35.154.35.345v.742h.343c.193 0 .35.154.35.345v.338h.857c.193 0 .35.154.35.345v1.046l.493.484H13.3v-.487L9.018 8.608a.307.307 0 0 1 0-.439.32.32 0 0 1 .446 0l3.835 3.776v-.623L8.642 6.737a.34.34 0 0 1-.073-.383 3.96 3.96 0 0 0 .343-1.622C8.912 2.502 7.07.69 4.806.69S.7 2.503.7 4.732s1.843 4.042 4.106 4.042zM3.345 2c.723 0 1.312.58 1.312 1.292 0 .712-.589 1.291-1.312 1.291-.724 0-1.312-.58-1.312-1.291C2.032 2.579 2.62 2 3.344 2zm0 1.894c.337 0 .611-.27.611-.602a.607.607 0 0 0-.611-.602.607.607 0 0 0-.612.602c0 .332.275.602.612.602z"/></g></g></svg>