<svg xmlns="http://www.w3.org/2000/svg" width="30" height="36" viewBox="0 0 15 18"><g><g><path d="M15 2.625v10.5c0 .62-.505 1.125-1.125 1.125s-1.125-.505-1.125-1.125v-.75a.375.375 0 0 0-.375-.375H12v3c.827 0 1.5.673 1.5 1.5v1.125a.375.375 0 0 1-.375.375H.375A.375.375 0 0 1 0 17.625V16.5c0-.827.673-1.5 1.5-1.5V1.5C1.5.673 2.173 0 3 0h7.5c.827 0 1.5.673 1.5 1.5v9.75h.375c.62 0 1.125.505 1.125 1.125v.75a.375.375 0 0 0 .75 0V6.75c-.827 0-1.5-.673-1.5-1.5V4.125c0-.1.04-.195.11-.265l1.235-1.235L12.86 1.39a.375.375 0 1 1 .53-.53l1.5 1.5c.07.07.11.165.11.265zM2.25 1.5V15h9V1.5a.751.751 0 0 0-.75-.75H3a.751.751 0 0 0-.75.75zM12 15.75H1.5a.75.75 0 0 0-.75.75v.75h12v-.75a.75.75 0 0 0-.75-.75zm2.25-12.22l-.75.75v.97c0 .413.337.75.75.75zM10.5 1.875v4.507a.375.375 0 0 1-.375.375h-6.75A.375.375 0 0 1 3 6.382V1.875c0-.207.168-.375.375-.375h6.75c.207 0 .375.168.375.375zm-.75.375h-6v3.757h6z"/></g></g></svg>